<?xml version="1.0" encoding="utf-8"?>
<!-- Generator: Adobe Illustrator 21.1.0, SVG Export Plug-In . SVG Version: 6.00 Build 0)  -->
<svg version="1.1" id="Layer_2" xmlns="http://www.w3.org/2000/svg" xmlns:xlink="http://www.w3.org/1999/xlink" x="0px" y="0px"
	 viewBox="0 0 2608.1 2630.5" style="enable-background:new 0 0 2608.1 2630.5;" xml:space="preserve">
<path stroke="rgba(255,255,255,0.75)" stroke-width="100" fill="transparent"  d="M1309,1045.1l-0.3,2.1l-27.7,189.5l25.5,21c28.8,23.6,53.2,48.1,72.6,72.7l21.1,26.8l189.5-29.1l2.4-0.6
	c3.4-0.8,6.7-1.4,10-1.9c15.6-2.1,30.9,0.1,46.6,6.6c20.5,8.5,27.2,19.5,30.8,28.1l44.8,108.6c5.6,13.6,5.4,23.9-0.6,35.6
	c-9.8,18.7-23.9,34.5-43.1,48.1l-1.4,1L1526,1669.7l3,32.4c2.8,29.8,2.9,62.6,0.4,97.5l-2.3,31.9l153.1,114.6l0.8,0.6
	c60.7,42.2,49.3,67.3,43.2,80.8l-0.6,1.4l-41.6,107c-9.7,17-21.6,28.2-36.3,34.2c-6.7,2.8-13.2,4.5-20.1,5.4
	c-10.9,1.4-22.4,0.7-35.1-2.4l-1.7-0.4l-191.2-34.1l-21.7,27.8c-22.2,28.5-46.5,54.2-72.3,76.4l-25.2,21.7l33.1,186.5l0.4,1.7
	c4.7,19.5,3.2,37.4-4.7,56.3c-6.7,16.2-16.5,26.2-31.6,32.5l-108.7,44.9c-3.5,1.4-6.9,2.4-10.3,2.8c-4.9,0.6-12.8,0.8-25.1-5.1
	c-19.1-9.3-35-23-48.3-41.7l-111.3-152.5l-33,3c-36.9,3.3-74.8,3.1-112.6-0.6l-33.5-3.3l-114.4,159.1l-1.1,1.8
	c-11,17.9-25,30.2-42.8,37.6c-5.6,2.3-11.1,3.8-16.6,4.5c-9.7,1.3-19.7,0.2-30.4-3.4l-106.3-46.9l-1.4-0.5
	c-13.8-5.3-39.6-15.1-26.5-88l0.2-1l28.1-196.2l-22.6-20.8c-24.5-22.6-46.1-44.8-64.4-66.1l-20.7-24.1l-190.5,25.9l-0.9,0.1
	c-2,0.3-3.9,0.6-5.9,0.9c-21.1,2.8-40.3,1.3-58.5-4.6c-9.4-3-18.6-7.8-25.6-24.7l-44.9-108.8c-3.6-8.6-6.5-21,2.1-41.7
	c7.9-19,19.6-32.7,36.6-43l2.1-1.3l154-112.4l-2.9-32.9c-2.7-30-2.8-63-0.4-98l2.2-31.6l-159-120.1l-0.9-0.7
	C20.6,1509.9,32,1484.6,38,1471l0.6-1.3l42.1-108.1c7.6-15,17.8-24.2,32.9-29.7c8.5-3.1,17.1-5.3,25.7-6.4
	c11.7-1.6,23.9-1.2,36.2,0.9l191.7,31.9l21.5-26c24.3-29.4,51-56.3,79.4-80l25.4-21.2l-28.8-187.4"/>
<path stroke="rgba(255,255,255,0.75)" stroke-width="100" fill="transparent" d="M1089,1562c30.4,41.8,48.4,93.3,48.4,149c0,140-113.5,253.5-253.5,253.5s-253.5-113.5-253.5-253.5
	c0-55.7,17.9-107.1,48.4-149"/>
<polyline stroke="rgba(255,255,255,0.75)" stroke-width="100" fill="transparent" points="747.9,1777.9 731.4,873.5 498.9,873.5 883.9,215 1268.9,873.5 1036.4,873.5 1019.9,1777.9 "/>
<path stroke="rgba(255,255,255,0.75)" stroke-width="100" fill="transparent" d="M2362.4,1129.2c-2.9,1.9-7.8,4.5-17.4,4.6c-14.9,0.1-29.2-3.6-43.4-11.2l-117.4-61.5l-19.8,12.1
	c-22.2,13.5-46.1,25.2-71.1,34.6l-22.1,8.3l-22.6,135.7l-0.1,1.5c-1.4,14.7-6.4,26.8-15.3,36.9c-2.8,3.2-5.8,5.8-9.1,8
	c-5.7,3.8-12.3,6.2-20.2,7.3l-81.5,3.4l-1,0.1c-10.4,1-29.6,2.8-44-47.2l-0.2-0.7l-43.2-132.3l-20.7-6.1
	c-22.4-6.6-43-13.9-61.1-21.6l-20.5-8.8l-111.9,75.4l-0.5,0.4c-1.1,0.8-2.3,1.6-3.4,2.4c-12.4,8.3-24.9,13.3-38.3,15.2
	c-6.9,1.1-14.1,0.8-23.8-7.6l-62-54.5c-4.9-4.3-10.6-11.2-11.6-26.9c-0.9-14.4,2.2-26.6,9.7-38.5l0.9-1.5l62.1-118.6l-12.1-19.8
	c-11-18.1-21.3-38.8-30.7-61.6l-8.4-20.6L1364.2,810l-0.8-0.1c-51.2-7.7-51.9-27.2-52.3-37.6l0-1l-7-81.1
	c0.1-11.8,3.7-20.8,11.5-28.9c4.4-4.6,9.2-8.6,14.2-12c6.9-4.6,14.7-8.2,23.1-10.7l130.6-39.4l5.4-23c6.2-26.1,14.6-51.3,25.2-75
	l9.4-21.2l-76.3-109.1c-30.5-41.6-17-56.9-9.8-65.1l54.6-62.1c2.6-2.9,5.2-5.3,8.1-7.2c5.6-3.8,12.3-5.8,20.5-6.4
	c14.2-0.9,26.8,2.3,38.7,9.8l1,0.7l116.3,64.3l20.1-11.7c21.2-12.3,43.8-22.6,67.2-30.6l23.5-8l20.6-133.6
	c2.3-14.9,7.9-27.6,16.9-38.9c2.5-3.1,5.4-5.8,8.8-8c5.5-3.7,12.2-6.3,20.3-7.9l80.3-3.3l1-0.1c10.4-1,29.8-2.8,43.9,47l0.4,1.4
	l41.4,127.9l22.6,5.3c25.4,5.9,48.4,13.8,68.3,23.2l21.6,10.3l110.3-77.1l1.3-1.1c1.9-1.6,3.8-3,5.7-4.3c9.2-6.2,19.5-9.5,31.4-10.3
	c15.5-1,23.2,3.9,28.1,8.2l61.9,54.4c7.8,6.8,10.8,13.4,10.6,22.6c-0.4,14.8-4.3,29.1-12.2,43.7l-0.6,1.1l-60.5,120.7l12,19.5
	c11,17.9,21.3,38.5,30.5,61.3l8.4,20.8l131.9,24.6l0.7,0.1c51.3,7.7,51.9,27,52.3,37.4l0,1.1l7,80.3c-0.8,13.7-4.8,24.5-12.2,32.8
	c-3.4,3.8-6.9,7-11,9.7c-6.4,4.3-13.9,7.4-22.8,9.4l-1.2,0.3l-131,37.9l-5,24.3c-5.1,24.9-12.5,48.6-21.8,70.5l-9.1,21.5L2417,994
	l0.8,1c9,10.8,13.6,22.5,14.5,36.9c0.8,12.3-2.2,21.6-9.8,30.2l-54.5,62C2366.3,1126.2,2364.4,1127.8,2362.4,1129.2z"/>
<ellipse stroke="rgba(255,255,255,0.75)" stroke-width="100" fill="transparent" transform="matrix(0.897 -0.4421 0.4421 0.897 -102.5053 921.7357)" class="st0" cx="1926.1" cy="680.8" rx="177.9" ry="177.9"/>
</svg>
