<svg id="Capa_1" data-name="Capa 1" xmlns="http://www.w3.org/2000/svg" viewBox="0 0 512 511.45"><defs><style>.cls-1{fill:#fff;}</style></defs><path d="M457,331.72a55.08,55.08,0,0,0-52.9,40H351V313.17h54.21a106.79,106.79,0,0,0,31-209A122.08,122.08,0,0,0,318,11.79a120.83,120.83,0,0,0-61.13,16.37A106.83,106.83,0,0,0,78.11,103.51a106.79,106.79,0,0,0,28.68,209.66H161v58.55H107.9a55,55,0,1,0,0,30H176a15,15,0,0,0,15-15V313.17h50v90.65a55,55,0,1,0,30,0V313.17h50v73.55a15,15,0,0,0,15,15h68.1a55,55,0,1,0,52.9-70Zm-402,80a25,25,0,1,1,25-25A25,25,0,0,1,55,411.72Zm226,45a25,25,0,1,1-25-25A25,25,0,0,1,281,456.72ZM106.79,283.17A76.79,76.79,0,0,1,95.61,130.4a15,15,0,0,0,12.77-16.22c-.22-2.34-.33-4.74-.33-7.12A76.81,76.81,0,0,1,243.28,57.22a15,15,0,0,0,20.34,2.35A90.78,90.78,0,0,1,318,41.79a92.06,92.06,0,0,1,90.67,77,15,15,0,0,0,11.83,12.29,76.8,76.8,0,0,1-15.27,152.06ZM457,411.72a25,25,0,1,1,25-25A25,25,0,0,1,457,411.72Z" transform="translate(0 -0.28)"/><path class="cls-1" d="M457,331.72a55.08,55.08,0,0,0-52.9,40H351V313.17h54.21a106.79,106.79,0,0,0,31-209A122.08,122.08,0,0,0,318,11.79a120.83,120.83,0,0,0-61.13,16.37A106.83,106.83,0,0,0,78.11,103.51a106.79,106.79,0,0,0,28.68,209.66H161v58.55H107.9a55,55,0,1,0,0,30H176a15,15,0,0,0,15-15V313.17h50v90.65a55,55,0,1,0,30,0V313.17h50v73.55a15,15,0,0,0,15,15h68.1a55,55,0,1,0,52.9-70Zm-402,80a25,25,0,1,1,25-25A25,25,0,0,1,55,411.72Zm226,45a25,25,0,1,1-25-25A25,25,0,0,1,281,456.72ZM106.79,283.17A76.79,76.79,0,0,1,95.61,130.4a15,15,0,0,0,12.77-16.22c-.22-2.34-.33-4.74-.33-7.12A76.81,76.81,0,0,1,243.28,57.22a15,15,0,0,0,20.34,2.35A90.78,90.78,0,0,1,318,41.79a92.06,92.06,0,0,1,90.67,77,15,15,0,0,0,11.83,12.29,76.8,76.8,0,0,1-15.27,152.06ZM457,411.72a25,25,0,1,1,25-25A25,25,0,0,1,457,411.72Z" transform="translate(0 -0.28)"/></svg>