<svg id="Capa_1" data-name="Capa 1" xmlns="http://www.w3.org/2000/svg" viewBox="0 0 512 459.37"><defs><style>.cls-1{fill:#fff;}</style></defs><path d="M503.84,395.38l-195.7-339a60.21,60.21,0,0,0-104.28,0l-195.7,339a60.2,60.2,0,0,0,52.14,90.3H451.7a60.2,60.2,0,0,0,52.14-90.3Zm-26,45.21a29.91,29.91,0,0,1-26.16,15.1H60.3a30.21,30.21,0,0,1-26.16-45.31l195.7-339a30.2,30.2,0,0,1,52.32,0l195.7,339A29.91,29.91,0,0,1,477.86,440.59Z" transform="translate(0 -26.32)"/><path class="cls-1" d="M503.84,395.38l-195.7-339a60.21,60.21,0,0,0-104.28,0l-195.7,339a60.2,60.2,0,0,0,52.14,90.3H451.7a60.2,60.2,0,0,0,52.14-90.3Zm-26,45.21a29.91,29.91,0,0,1-26.16,15.1H60.3a30.21,30.21,0,0,1-26.16-45.31l195.7-339a30.2,30.2,0,0,1,52.32,0l195.7,339A29.91,29.91,0,0,1,477.86,440.59Z" transform="translate(0 -26.32)"/><rect x="241" y="149.69" width="30" height="149.98"/><rect class="cls-1" x="241" y="149.69" width="30" height="149.98"/><path d="M256,356a20,20,0,1,0,20,20A20,20,0,0,0,256,356Z" transform="translate(0 -26.32)"/><path class="cls-1" d="M256,356a20,20,0,1,0,20,20A20,20,0,0,0,256,356Z" transform="translate(0 -26.32)"/></svg>