<?xml version="1.0" encoding="utf-8"?>
<!-- Generator: Adobe Illustrator 21.1.0, SVG Export Plug-In . SVG Version: 6.00 Build 0)  -->
<svg version="1.1" id="Layer_1" xmlns="http://www.w3.org/2000/svg" xmlns:xlink="http://www.w3.org/1999/xlink" x="0px" y="0px"
	 viewBox="0 0 906 599.7" style="enable-background:new 0 0 906 599.7;" xml:space="preserve">
<circle  fill="rgba(255,255,255,0.75)" cx="457.4" cy="300.1" r="58.3"/>
<circle  stroke="rgba(255,255,255,0.75)" stroke-width="26" fill="transparent" cx="457.4" cy="300.1" r="198"/>
<path  stroke="rgba(255,255,255,0.75)" stroke-width="26" fill="transparent" d="M0.4,300.1c11.3,0,30.3-35.3,30.3-35.3S172.4,9.4,456.1,9.4s420.3,255.3,420.3,255.3s12.7,35.3,29.7,35.3"/>
<g>
	<path stroke="rgba(255,255,255,0.75)" stroke-width="26" fill="transparent" d="M0,300c11.3,0,30.3,35.3,30.3,35.3S172,590.7,455.7,590.7S876,335.3,876,335.3s12.7-35.3,29.7-35.3"/>
	<path stroke="rgba(255,255,255,0.75)" stroke-width="26" fill="transparent" d="M0,299.7c11.3,0,30.3-35.3,30.3-35.3S172,9,455.7,9S876,264.3,876,264.3s12.7,35.3,29.7,35.3"/>
</g>
</svg>
