<svg id="Layer_1" data-name="Layer 1" xmlns="http://www.w3.org/2000/svg" viewBox="0 0 1230.87 1600"><defs><style>.cls-1{fill:#fff;}</style></defs><path d="M1124.66,644.32H184.78A145.49,145.49,0,0,0,39.29,789.82v693.71A145.49,145.49,0,0,0,184.78,1629h939.88a145.49,145.49,0,0,0,145.5-145.49V789.81A145.49,145.49,0,0,0,1124.66,644.32Zm-407,505a64.52,64.52,0,0,1,1.8,15.12v124.45a65.15,65.15,0,1,1-130.29,0V1164.44a64.42,64.42,0,0,1,1.9-15.55,123.62,123.62,0,1,1,126.59.43Z" transform="translate(-39.29 -29.02)"/><path d="M800.19,53.48C753.71,36.57,706.17,28.94,658,29c-48.17-.08-102.26,7.55-148.74,24.46C292.68,132.26,214,326.69,224.85,584.06H404.64c-10.1-177.35,35.72-296.86,147.72-347.91a247.23,247.23,0,0,1,204.72,0c112,51,157.82,170.55,147.73,347.91h179.78C1095.43,326.69,1016.76,132.26,800.19,53.48Z" transform="translate(-39.29 -29.02)"/><path class="cls-1" d="M1124.66,644.32H184.78A145.49,145.49,0,0,0,39.29,789.82v693.71A145.49,145.49,0,0,0,184.78,1629h939.88a145.49,145.49,0,0,0,145.5-145.49V789.81A145.49,145.49,0,0,0,1124.66,644.32Zm-407,505a64.52,64.52,0,0,1,1.8,15.12v124.45a65.15,65.15,0,1,1-130.29,0V1164.44a64.42,64.42,0,0,1,1.9-15.55,123.62,123.62,0,1,1,126.59.43Z" transform="translate(-39.29 -29.02)"/><path class="cls-1" d="M800.19,53.48C753.71,36.57,706.17,28.94,658,29c-48.17-.08-102.26,7.55-148.74,24.46C292.68,132.26,214,326.69,224.85,584.06H404.64c-10.1-177.35,35.72-296.86,147.72-347.91a247.23,247.23,0,0,1,204.72,0c112,51,157.82,170.55,147.73,347.91h179.78C1095.43,326.69,1016.76,132.26,800.19,53.48Z" transform="translate(-39.29 -29.02)"/></svg>